<svg xmlns="http://www.w3.org/2000/svg" xmlns:xlink="http://www.w3.org/1999/xlink" width="64" height="64" viewBox="0 0 64 64">
  <defs>
    <clipPath id="clip-path">
      <rect id="Rectangle_65" data-name="Rectangle 65" width="64" height="64" fill="#e5e5e5"/>
    </clipPath>
  </defs>
  <g id="Mask_Group_21" data-name="Mask Group 21" clip-path="url(#clip-path)">
    <g id="react" transform="translate(-22.921 -6.673)">
      <path id="Path_90" data-name="Path 90" d="M86.921,38.679c0-4.24-5.309-8.258-13.45-10.749,1.879-8.3,1.044-14.9-2.635-17.011a5.719,5.719,0,0,0-2.922-.731V13.1a3.021,3.021,0,0,1,1.487.339c1.774,1.018,2.544,4.892,1.944,9.875-.143,1.226-.378,2.518-.665,3.835A63.22,63.22,0,0,0,62.4,25.725,63.635,63.635,0,0,0,56.969,19.2c4.253-3.953,8.245-6.118,10.958-6.118V10.175h0c-3.587,0-8.284,2.557-13.032,6.992-4.748-4.409-9.445-6.94-13.032-6.94v2.909c2.7,0,6.705,2.152,10.958,6.079a61.614,61.614,0,0,0-5.388,6.51,60.919,60.919,0,0,0-8.3,1.435c-.3-1.3-.522-2.57-.678-3.783-.613-4.983.143-8.858,1.9-9.888a2.9,2.9,0,0,1,1.5-.339V10.241h0a5.817,5.817,0,0,0-2.948.731c-3.666,2.113-4.488,8.7-2.6,16.972-8.114,2.5-13.4,6.51-13.4,10.736s5.309,8.258,13.45,10.749c-1.879,8.3-1.044,14.9,2.635,17.011a5.735,5.735,0,0,0,2.935.731c3.587,0,8.284-2.557,13.032-6.992,4.748,4.409,9.445,6.94,13.032,6.94a5.817,5.817,0,0,0,2.948-.731c3.666-2.113,4.488-8.7,2.6-16.972C81.637,46.924,86.921,42.906,86.921,38.679Zm-16.985-8.7c-.483,1.683-1.083,3.418-1.761,5.153-.535-1.044-1.1-2.087-1.709-3.131s-1.239-2.061-1.879-3.053C66.439,29.221,68.227,29.561,69.936,29.978ZM63.961,43.871c-1.018,1.761-2.061,3.431-3.144,4.983-1.944.17-3.914.261-5.9.261s-3.94-.091-5.87-.248q-1.624-2.329-3.157-4.957-1.487-2.563-2.713-5.192c.809-1.748,1.722-3.5,2.7-5.205,1.018-1.761,2.061-3.431,3.144-4.983,1.944-.17,3.914-.261,5.9-.261s3.94.091,5.87.248q1.624,2.329,3.157,4.957,1.487,2.563,2.713,5.192C65.839,40.414,64.939,42.162,63.961,43.871Zm4.214-1.7c.7,1.748,1.3,3.5,1.8,5.192-1.709.417-3.509.77-5.375,1.044.639-1,1.278-2.035,1.879-3.092S67.64,43.219,68.174,42.175ZM54.947,56.095A53.78,53.78,0,0,1,51.32,51.92c1.174.052,2.374.091,3.587.091s2.439-.026,3.627-.091A50.918,50.918,0,0,1,54.947,56.095Zm-9.706-7.684c-1.852-.274-3.64-.613-5.349-1.031.483-1.683,1.083-3.418,1.761-5.153.535,1.044,1.1,2.087,1.709,3.131S44.6,47.419,45.241,48.411Zm9.64-27.147a53.782,53.782,0,0,1,3.627,4.174c-1.174-.052-2.374-.091-3.587-.091s-2.439.026-3.627.091A50.919,50.919,0,0,1,54.881,21.264Zm-9.653,7.684c-.639,1-1.278,2.035-1.879,3.092s-1.161,2.087-1.7,3.131c-.7-1.748-1.3-3.5-1.8-5.192C41.562,29.574,43.362,29.221,45.228,28.947ZM33.422,45.28c-4.618-1.97-7.605-4.553-7.605-6.6s2.987-4.644,7.605-6.6c1.122-.483,2.348-.913,3.614-1.318a62.654,62.654,0,0,0,2.935,7.945,61.771,61.771,0,0,0-2.9,7.905C35.783,46.206,34.557,45.763,33.422,45.28ZM40.44,63.922C38.666,62.9,37.9,59.03,38.5,54.046c.143-1.226.378-2.518.665-3.835a63.22,63.22,0,0,0,8.284,1.422,63.635,63.635,0,0,0,5.427,6.523c-4.253,3.953-8.245,6.118-10.958,6.118A3.113,3.113,0,0,1,40.44,63.922Zm30.943-9.94c.613,4.983-.144,8.858-1.9,9.888a2.9,2.9,0,0,1-1.5.339c-2.7,0-6.705-2.152-10.958-6.079a61.614,61.614,0,0,0,5.388-6.51,60.918,60.918,0,0,0,8.3-1.435A36.522,36.522,0,0,1,71.384,53.981Zm5.022-8.7c-1.122.483-2.348.913-3.614,1.318a62.656,62.656,0,0,0-2.935-7.945,61.773,61.773,0,0,0,2.9-7.905c1.291.4,2.518.848,3.666,1.331,4.618,1.97,7.605,4.553,7.605,6.6S81.024,43.323,76.406,45.28Z" fill="#61dafb"/>
      <path id="Path_91" data-name="Path 91" d="M41.849,10.227Z" fill="#61dafb"/>
      <circle id="Ellipse_11" data-name="Ellipse 11" cx="5.962" cy="5.962" r="5.962" transform="translate(48.946 32.717)" fill="#61dafb"/>
      <path id="Path_92" data-name="Path 92" d="M67.9,10.188Z" fill="#61dafb"/>
    </g>
  </g>
</svg>
