<svg xmlns="http://www.w3.org/2000/svg" xmlns:xlink="http://www.w3.org/1999/xlink" width="52" height="52" viewBox="0 0 52 52">
  <defs>
    <clipPath id="clip-path">
      <rect id="Rectangle_27" data-name="Rectangle 27" width="52" height="52" transform="translate(0.215)" fill="#e5e5e5"/>
    </clipPath>
  </defs>
  <g id="Mask_Group_19" data-name="Mask Group 19" transform="translate(-0.215)" clip-path="url(#clip-path)">
    <g id="Layer_x0020_1" transform="translate(0 0.16)">
      <rect id="Rectangle_49" data-name="Rectangle 49" width="52" height="51.681" fill="#bc85f3"/>
      <rect id="Rectangle_50" data-name="Rectangle 50" width="43.284" height="43.019" transform="translate(4.358 4.331)" fill="#252653"/>
      <path id="Path_65" data-name="Path 65" d="M24.542,35.566l1.811,5.988H31.44l-7.224-24.1a.107.107,0,0,0-.118-.074l-5.978-.017c-.232,0-.239.121-.218.349a4.936,4.936,0,0,1-.138,1.942l-6.4,21.9,4.825-.007,1.5-5.988Zm-.867-4.341H18.722l2.4-9.7Z" transform="translate(-3.636 -3.793)" fill="#bc85f3" fill-rule="evenodd"/>
      <path id="Path_66" data-name="Path 66" d="M37.374,33.621l9.338.013a5.443,5.443,0,0,0,.679-3.095c-.064-3.763-2.557-7.365-7.059-7.389-7.56-.044-8.991,9.516-6.418,15.029a6.476,6.476,0,0,0,4.345,3.36,10.5,10.5,0,0,0,2.728.363,10.676,10.676,0,0,0,5.235-1.3c.024-.013.064-.013.067-.04v-.108l0-3.115c0-.141-.108-.222-.269-.171-1.909.575-8.373,2.409-8.672-3.373C37.34,33.752,37.33,33.621,37.374,33.621ZM42.054,30.5H37.3c.024-2.527,1.183-3.961,2.974-3.968,1.626-.007,2.661,1.122,2.712,3.908v.06Z" transform="translate(-3.636 -3.793)" fill="#bc85f3" fill-rule="evenodd"/>
    </g>
  </g>
</svg>
