<svg xmlns="http://www.w3.org/2000/svg" xmlns:xlink="http://www.w3.org/1999/xlink" width="52" height="52" viewBox="0 0 52 52">
  <defs>
    <clipPath id="clip-path">
      <rect id="Rectangle_27" data-name="Rectangle 27" width="52" height="52" transform="translate(0.068 -0.372)" fill="#e5e5e5"/>
    </clipPath>
  </defs>
  <g id="Mask_Group_18" data-name="Mask Group 18" transform="translate(-0.068 0.372)" clip-path="url(#clip-path)">
    <g id="Layer_x0020_1" transform="translate(0 0.16)">
      <rect id="Rectangle_46" data-name="Rectangle 46" width="52" height="51.681" fill="#ff7c00"/>
      <rect id="Rectangle_47" data-name="Rectangle 47" width="43.284" height="43.019" transform="translate(4.358 4.331)" fill="#261300"/>
      <g id="_1927324032" transform="translate(34.535 13.86)">
        <rect id="Rectangle_48" data-name="Rectangle 48" width="4.489" height="17.24" rx="0.192" transform="translate(0.141 6.841)" fill="#ff7c00"/>
        <ellipse id="Ellipse_6" data-name="Ellipse 6" cx="2.386" cy="2.281" rx="2.386" ry="2.281" fill="#ff7c00"/>
      </g>
      <path id="Path_64" data-name="Path 64" d="M29.437,35.707l1.683,5.574c.087.329.259.41.491.407h4.311c.333,0,.356-.1.306-.319L29.108,17.62a.105.105,0,0,0-.114-.074l-5.971-.017c-.235,0-.239.121-.218.349a4.858,4.858,0,0,1-.141,1.939l-6.3,21.565c-.067.2-.05.306.218.309l4.069,0c.43-.013.454-.131.528-.346l1.411-5.635Zm-.87-4.334H23.624l2.4-9.69Z" transform="translate(-3.636 -3.793)" fill="#ff7c00" fill-rule="evenodd"/>
    </g>
  </g>
</svg>
