<svg xmlns="http://www.w3.org/2000/svg" xmlns:xlink="http://www.w3.org/1999/xlink" width="52" height="52" viewBox="0 0 52 52">
  <defs>
    <clipPath id="clip-path">
      <rect id="Rectangle_27" data-name="Rectangle 27" width="52" height="52" fill="#e5e5e5"/>
    </clipPath>
  </defs>
  <g id="Mask_Group_15" data-name="Mask Group 15" clip-path="url(#clip-path)">
    <g id="Layer_x0020_1" transform="translate(0 0.16)">
      <rect id="Rectangle_40" data-name="Rectangle 40" width="52" height="51.681" fill="#87bcf6"/>
      <rect id="Rectangle_41" data-name="Rectangle 41" width="43.284" height="43.019" transform="translate(4.358 4.331)" fill="#252653"/>
      <path id="Path_58" data-name="Path 58" d="M42.189,24.112c-3.851-1.942-10.48-1-10.48,4.066,0,3.773,2.611,5.258,5.8,6.505,4.536,1.771.128,5.117-5.41,1.656,0,0-.2-.1-.3,0a.361.361,0,0,0-.1.3V40.27a10.818,10.818,0,0,0,5.615,1.472c7.207-.074,8.246-6.975,4.412-9.63a23.763,23.763,0,0,0-3.145-1.673c-3.048-1.163-2.789-2.816-1.821-3.649,1.068-.924,4.032.474,5.279,1.253.756.467.88-.114.877-.625L42.914,25C42.914,24.427,42.716,24.38,42.189,24.112Z" transform="translate(-3.636 -3.793)" fill="#87bcf6" fill-rule="evenodd"/>
      <path id="Path_59" data-name="Path 59" d="M19.932,30.146V21.3a.437.437,0,0,1,.195-.195c3.75-.192,5.883.541,6.075,4.546.218,4.6-3.636,4.694-6.27,4.694ZM15.409,17.855V41.648h4.523V33.98c5.558.4,10.571-1.6,10.571-8.02a8.65,8.65,0,0,0-2.718-6.774C25.113,16.982,18.87,17.472,15.409,17.855Z" transform="translate(-3.636 -3.793)" fill="#87bcf6" fill-rule="evenodd"/>
    </g>
  </g>
</svg>
