<svg xmlns="http://www.w3.org/2000/svg" xmlns:xlink="http://www.w3.org/1999/xlink" width="52" height="52" viewBox="0 0 52 52">
  <defs>
    <clipPath id="clip-path">
      <rect id="Rectangle_27" data-name="Rectangle 27" width="52" height="52" transform="translate(0.147 -0.372)" fill="#e5e5e5"/>
    </clipPath>
  </defs>
  <g id="Mask_Group_19" data-name="Mask Group 19" transform="translate(-0.147 0.372)" clip-path="url(#clip-path)">
    <g id="Layer_x0020_1" transform="translate(0 0.16)">
      <rect id="Rectangle_49" data-name="Rectangle 49" width="52" height="51.681" fill="#ff2bc2"/>
      <rect id="Rectangle_50" data-name="Rectangle 50" width="43.284" height="43.019" transform="translate(4.358 4.331)" fill="#2e001e"/>
      <path id="Path_65" data-name="Path 65" d="M13.692,18.04c.171.373.427.83.521,1.021.262.524.517,1.011.776,1.529l4.217,8.393c.124.245.356.521.239.786l-5.917,11.3c-.141.279-.454.6.114.6H17.15c.5,0,.5-.262.82-.934l4.015-8.414c.276.242,3.555,7.362,4.348,8.988.138.282.171.36.575.36.568,0,3.689.067,3.988-.06.064-.329-.5-1.236-.672-1.556l-1.559-2.99c-1.233-2.372-2.644-5.252-3.894-7.506-.255-.46-.158-.437.417-1.5.279-.517.511-.991.79-1.509.255-.48.514-.974.769-1.475l2.345-4.513a26.606,26.606,0,0,0,1.431-2.873c.057-.2-.282-.192-.524-.192l-3.1,0h-.05c-.339,0-.39.067-.511.312L23.3,24.307a24.77,24.77,0,0,1-1.105,2.345c-.319-.79-.709-1.552-1.055-2.339L18.91,19.629c-.2-.383-.356-.773-.548-1.152-.1-.208-.195-.383-.286-.588-.128-.286-.111-.39-.491-.39l-3.552,0C13.507,17.506,13.454,17.523,13.692,18.04Z" transform="translate(-3.636 -3.793)" fill="#ff3bc1" fill-rule="evenodd"/>
      <path id="Path_66" data-name="Path 66" d="M35.771,33.012a7.059,7.059,0,0,1,.971-4.086A5.258,5.258,0,0,1,37.4,28.1a4.591,4.591,0,0,1,4.465-1l.007,11.128C38.372,39.235,35.771,37.078,35.771,33.012Zm6.1-9.455-1.425-.027a8.881,8.881,0,0,0-6.256,2.621,9.722,9.722,0,0,0-2.473,6.421c0,2.917.538,5.04,2.113,6.888a7.9,7.9,0,0,0,5.9,2.513,12.892,12.892,0,0,0,3.7-.433,10.213,10.213,0,0,0,2.52-.991,9.752,9.752,0,0,0-.067-1.287c-.047-1.324-.017-3.091-.013-4.442l0-16.884c0-.336.02-.437-.333-.437H42.2c-.464,0-.329.286-.329,1.263Z" transform="translate(-3.636 -3.793)" fill="#fe31c0" fill-rule="evenodd"/>
    </g>
  </g>
</svg>
