<svg xmlns="http://www.w3.org/2000/svg" xmlns:xlink="http://www.w3.org/1999/xlink" width="52" height="52" viewBox="0 0 52 52">
  <defs>
    <clipPath id="clip-path">
      <rect id="Rectangle_27" data-name="Rectangle 27" width="52" height="52" transform="translate(-0.393)" fill="#e5e5e5"/>
    </clipPath>
  </defs>
  <g id="Mask_Group_19" data-name="Mask Group 19" transform="translate(0.393)" clip-path="url(#clip-path)">
    <g id="Layer_x0020_1" transform="translate(0 0.16)">
      <rect id="Rectangle_49" data-name="Rectangle 49" width="52" height="51.681" fill="#d573f7"/>
      <rect id="Rectangle_50" data-name="Rectangle 50" width="43.284" height="43.019" transform="translate(4.358 4.331)" fill="#252653"/>
      <path id="Path_65" data-name="Path 65" d="M15.584,17.717V41.54l4.741.007V34.034a23,23,0,0,0,4.654-.306,7.781,7.781,0,0,0,4.153-2.376,7.489,7.489,0,0,0,2.077-5.44c0-5.833-3.8-8.6-9.771-8.4Zm4.741,12.55.007-8.9c1.982-.04,3.709-.017,4.845.991.89.79,1.22,1.65,1.186,3.659C26.3,29.9,23.692,30.267,20.325,30.267Z" transform="translate(-3.636 -3.793)" fill="#d573f7" fill-rule="evenodd"/>
      <path id="Path_66" data-name="Path 66" d="M33.567,28.137l.01,13.6,4.734.024.013-11.693-.013-.517a6.377,6.377,0,0,1,5.174-1.939c.188.007.249.007.249-.232V23.944c.013-.608-.121-.769-.816-.746a4.618,4.618,0,0,0-3.7,1.307c-.276.235-1.092,1.213-1.092,1.213a3.062,3.062,0,0,0-.595-2.234c-.228-.165-.286-.151-.615-.151h-.625L33.668,23.3c-.289.047-.306.114-.3.447C33.4,25.227,33.567,26.272,33.567,28.137Z" transform="translate(-3.636 -3.793)" fill="#d573f7" fill-rule="evenodd"/>
    </g>
  </g>
</svg>
